<?xml version="1.0" encoding="utf-8"?>
<!-- Generator: Adobe Illustrator 27.7.0, SVG Export Plug-In . SVG Version: 6.00 Build 0)  -->
<svg version="1.1" id="Layer_1" xmlns="http://www.w3.org/2000/svg" xmlns:xlink="http://www.w3.org/1999/xlink" x="0px" y="0px"
	 viewBox="0 0 512 512" style="enable-background:new 0 0 512 512;" xml:space="preserve">
<g>
	<path d="M281.6,25.6V128c0.02,28.29,22.91,51.18,51.2,51.2l102.4,0c14.14,0,25.6-11.46,25.6-25.6c0-14.14-11.46-25.6-25.6-25.6
		H332.8l0,0V25.6c0-14.14-11.46-25.6-25.6-25.6C293.06,0,281.6,11.46,281.6,25.6z"/>
	<path d="M384,486.4v-25.6H128c-14.13-0.03-25.57-11.47-25.6-25.6V76.8c0.03-14.13,11.47-25.57,25.6-25.6h168.6l113,113v271
		c-0.03,14.13-11.47,25.57-25.6,25.6V486.4V512c42.43-0.02,76.78-34.37,76.8-76.8V153.6c0-6.74-2.73-13.34-7.5-18.1l-128-128
		C320.54,2.73,313.94,0,307.2,0H128C85.57,0.02,51.22,34.37,51.2,76.8v358.4c0.02,42.43,34.37,76.78,76.8,76.8h256V486.4z"/>
	<path d="M256,268.8c-0.02-35.36-28.64-63.98-64-64c-35.36,0.02-63.98,28.64-64,64v76.8c0.02,35.36,28.64,63.98,64,64
		c35.36-0.02,63.98-28.64,64-64c0-14.14-11.46-25.6-25.6-25.6s-25.6,11.46-25.6,25.6c-0.01,7.06-5.74,12.79-12.8,12.8
		c-7.06-0.01-12.79-5.74-12.8-12.8v-76.8c0.01-7.06,5.74-12.79,12.8-12.8c7.06,0.01,12.79,5.74,12.8,12.8
		c0,14.14,11.46,25.6,25.6,25.6S256,282.94,256,268.8L256,268.8z"/>
	<path d="M256.76,236.61l38.4,153.6c2.85,11.4,13.09,19.39,24.84,19.39s21.99-7.99,24.84-19.39l38.4-153.6
		c3.43-13.72-4.91-27.62-18.63-31.04c-13.72-3.43-27.62,4.91-31.04,18.63L320,278.45l-13.56-54.26
		c-3.43-13.72-17.33-22.06-31.04-18.63C261.67,208.99,253.34,222.89,256.76,236.61L256.76,236.61z"/>
</g>
</svg>
